<svg xmlns="http://www.w3.org/2000/svg" viewBox="0 0 64 64" width="64" height="64">
  <defs>
    <linearGradient id="bg" x1="0%" y1="0%" x2="100%" y2="100%">
      <stop offset="0%" style="stop-color:#E31837"/>
      <stop offset="100%" style="stop-color:#B91C3A"/>
    </linearGradient>
  </defs>
  <rect width="64" height="64" rx="14" fill="url(#bg)"/>
  <!-- Top bun -->
  <path d="M14 24 Q14 16 32 16 Q50 16 50 24 Z" fill="#F5C563" stroke="#D4943A" stroke-width="1"/>
  <!-- Seeds -->
  <ellipse cx="24" cy="20" rx="3" ry="1.5" fill="#FFF5D4" transform="rotate(-10 24 20)"/>
  <ellipse cx="32" cy="19" rx="3" ry="1.5" fill="#FFF5D4"/>
  <ellipse cx="40" cy="20" rx="3" ry="1.5" fill="#FFF5D4" transform="rotate(10 40 20)"/>
  <!-- Lettuce -->
  <path d="M12 26 Q18 29 24 26 Q30 29 36 26 Q42 29 48 26 Q52 27 52 27 L52 29 Q42 32 32 29 Q22 32 12 29 Z" fill="#4CAF50"/>
  <!-- Patty -->
  <rect x="15" y="30" width="34" height="6" rx="2" fill="#6D3A1A"/>
  <!-- Cheese -->
  <path d="M15 36 L49 36 L49 38 Q44 38 42 42 Q40 38 34 38 Q32 43 30 38 Q24 38 22 41 Q20 38 16 38 L15 38 Z" fill="#FFC107"/>
  <!-- Bottom bun -->
  <path d="M14 40 L50 40 Q50 48 32 48 Q14 48 14 40 Z" fill="#D4943A"/>
</svg>
